<svg width="528" height="396" viewBox="0 0 528 396" fill="none" xmlns="http://www.w3.org/2000/svg">
<path d="M183.442 0.856995C184.387 1.35699 185.143 2.82699 185.696 3.74699C196.551 21.77 206.723 40.223 217.352 58.383C233.567 86.084 250.143 113.613 266.003 141.516C269.106 136.698 271.952 131.748 274.743 126.745C277.829 121.215 280.942 113.843 285.495 109.429C286.941 108.026 288.861 106.958 290.856 106.612C297.872 105.394 305.335 106.627 312.427 106.698C324.034 106.814 335.645 106.571 347.252 106.558C344.965 112.338 341.391 117.509 338.169 122.796C335.086 127.928 332.058 133.093 329.087 138.291L286.352 211.953L273.321 234.524C270.963 238.581 268.219 242.613 266.247 246.864L210.654 152.018L196.283 127.415C192.167 120.31 188.338 113.395 183.563 106.699C181.485 111.077 178.546 115.342 176.09 119.547C171.946 126.645 167.992 134.052 163.385 140.85L90.064 266.585L73.438 295.338C70.471 300.483 67.819 306.91 63.695 311.186C61.246 313.726 57.792 315.305 54.315 315.827C46.3197 317.026 38.0497 317.547 30 317.5C20.0468 317.441 10.0995 316.062 0.1604 316.384C4.2354 307.613 9.9367 298.941 14.8311 290.57L42.8483 242.738L165.827 31.686C171.777 21.467 178.147 11.433 183.442 0.856995Z" fill="black"/>
<path d="M405.277 106.178C408.555 108.176 426.071 140.699 429.535 146.624L495.713 260.24C503.486 273.381 511.165 286.577 518.748 299.829C521.58 304.816 524.948 309.436 527.166 314.749L526.77 314.836C517.344 317.003 497.5 317 497.5 317C497.5 317 481.492 316.797 473.889 315.668C470.356 315.143 468.203 314.626 465.675 311.992C459.464 305.524 454.785 294.933 450.231 287.063L422.769 240.089C417.269 230.627 412.243 220.517 405.745 211.711C399.913 219.886 395.107 228.923 390.177 237.659C385.771 245.384 381.304 253.073 376.777 260.727C358.181 293.076 339.385 325.308 320.388 357.423C317.791 361.796 315.25 366.201 312.766 370.64C309.276 376.949 305.733 385.368 300.459 390.374C298.675 392.067 296.842 393.213 294.425 393.762C287.871 395.25 273 395.129 273 395.129L240.862 394.373C237.944 394.16 234.91 393.773 232.31 392.341C229.822 390.971 228.582 388.916 227.122 386.58C220.968 376.734 215.48 366.294 209.715 356.2L175.505 296.283C171.833 289.849 168.192 283.386 164.417 277.012C161.397 271.911 157.027 266.422 155.423 260.69C154.601 257.757 154.87 255.702 155.907 252.904C158.209 246.691 162.574 241.211 165.935 235.527C171.932 225.304 177.814 215.014 183.579 204.659C185.489 208.556 188.114 212.334 190.319 216.087L244.797 310.55C251.745 322.567 259.208 334.44 265.696 346.705C270.805 336.786 276.996 327.356 282.573 317.693L321.597 250.557C349.665 202.543 376.904 154.007 405.277 106.178Z" fill="black"/>
</svg>
